<svg xmlns="http://www.w3.org/2000/svg" xmlns:xlink="http://www.w3.org/1999/xlink" width="500" zoomAndPan="magnify" viewBox="0 0 375 374.999991" height="500" preserveAspectRatio="xMidYMid meet" version="1.0"><defs><g/></defs><rect x="-37.5" width="450" fill="#ffffff" y="-37.499999" height="449.999989" fill-opacity="1"/><rect x="-37.5" width="450" fill="#191919" y="-37.499999" height="449.999989" fill-opacity="1"/><path fill="#ffffff" d="M 294.9375 288.703125 L 232.414062 162.949219 C 214.007812 179.417969 197.804688 208.304688 198.710938 231.972656 L 217.625 269.28125 C 218.304688 270.617188 219.464844 271.652344 220.871094 272.175781 L 287.503906 296.964844 C 292.582031 298.851562 297.347656 293.554688 294.9375 288.703125 Z M 182.738281 219.984375 C 182.578125 220.21875 182.429688 220.46875 182.296875 220.738281 L 158.558594 268.84375 C 157.886719 270.210938 156.714844 271.269531 155.285156 271.800781 L 87.425781 297.046875 C 82.378906 298.925781 77.621094 293.691406 79.964844 288.847656 L 180.695312 80.566406 C 182.859375 76.097656 189.214844 76.0625 191.425781 80.507812 L 230.277344 158.65625 C 208.972656 173.882812 192.289062 195.164062 182.738281 219.984375 " fill-opacity="1" fill-rule="nonzero"/><g fill="#ffffff" fill-opacity="1"><g transform="translate(159.954443, 315.219471)"><g><path d="M 6.15625 -8.484375 L 6.15625 -7.578125 L 3.84375 -7.578125 L 3.84375 0 L 2.734375 0 L 2.734375 -7.578125 L 0.40625 -7.578125 L 0.40625 -8.484375 Z M 6.15625 -8.484375 "/></g></g></g><g fill="#ffffff" fill-opacity="1"><g transform="translate(169.542417, 315.219471)"><g><path d="M 2.046875 -8.484375 L 2.046875 0 L 0.9375 0 L 0.9375 -8.484375 Z M 2.046875 -8.484375 "/></g></g></g><g fill="#ffffff" fill-opacity="1"><g transform="translate(175.542016, 315.219471)"><g><path d="M 11.59375 -8.484375 L 9.140625 0 L 7.90625 0 L 5.921875 -6.828125 L 3.890625 0 L 2.65625 0.015625 L 0.28125 -8.484375 L 1.453125 -8.484375 L 3.3125 -1.296875 L 5.359375 -8.484375 L 6.59375 -8.484375 L 8.546875 -1.3125 L 10.40625 -8.484375 Z M 11.59375 -8.484375 "/></g></g></g><g fill="#ffffff" fill-opacity="1"><g transform="translate(190.421337, 315.219471)"><g><path d="M 5.953125 -1.890625 L 2.25 -1.890625 L 1.5625 0 L 0.40625 0 L 3.46875 -8.4375 L 4.75 -8.4375 L 7.796875 0 L 6.640625 0 Z M 5.640625 -2.78125 L 4.109375 -7.078125 L 2.5625 -2.78125 Z M 5.640625 -2.78125 "/></g></g></g><g fill="#ffffff" fill-opacity="1"><g transform="translate(201.627128, 315.219471)"><g><path d="M 5.40625 0 L 3.390625 -3.46875 L 2.046875 -3.46875 L 2.046875 0 L 0.9375 0 L 0.9375 -8.484375 L 3.671875 -8.484375 C 4.316406 -8.484375 4.859375 -8.375 5.296875 -8.15625 C 5.742188 -7.9375 6.078125 -7.640625 6.296875 -7.265625 C 6.515625 -6.890625 6.625 -6.460938 6.625 -5.984375 C 6.625 -5.398438 6.453125 -4.882812 6.109375 -4.4375 C 5.773438 -3.988281 5.269531 -3.691406 4.59375 -3.546875 L 6.734375 0 Z M 2.046875 -4.359375 L 3.671875 -4.359375 C 4.273438 -4.359375 4.726562 -4.503906 5.03125 -4.796875 C 5.332031 -5.097656 5.484375 -5.492188 5.484375 -5.984375 C 5.484375 -6.492188 5.332031 -6.882812 5.03125 -7.15625 C 4.738281 -7.4375 4.285156 -7.578125 3.671875 -7.578125 L 2.046875 -7.578125 Z M 2.046875 -4.359375 "/></g></g></g><g fill="#ffffff" fill-opacity="1"><g transform="translate(212.030092, 315.219471)"><g><path d="M 2.046875 -8.484375 L 2.046875 0 L 0.9375 0 L 0.9375 -8.484375 Z M 2.046875 -8.484375 "/></g></g></g></svg>